<?xml version="1.0" standalone="no"?><!DOCTYPE svg PUBLIC "-//W3C//DTD SVG 1.1//EN" "http://www.w3.org/Graphics/SVG/1.1/DTD/svg11.dtd"><svg class="icon" width="100px" height="99.90px" viewBox="0 0 1025 1024" version="1.1" xmlns="http://www.w3.org/2000/svg"><path d="M1000.190482 524.984542l-0.206671-0.082868c0.032948-0.604039 0.053914-1.212073 0.053914-1.825098 0-17.675892-13.997741-32.005105-31.26628-32.005105-17.267541 0-31.265281 14.329213-31.265281 32.005105 0 0.355435 0.014976 0.706876 0.025959 1.059315 0.003994 0.772771 0.015975 1.828093 0.038938 3.296758 3.86086 240.395719-200.755755 432.588092-437.436383 432.565128-241.675684-0.021965-439.970353-205.121812-437.591136-452.497432C64.901792 262.150504 259.932651 64.001604 500.174615 64.001604c133.992922 0 253.918215 61.640978 334.198552 158.729586l-97.811458 88.402421 287.433918 99.004561-49.453359-314.094522-93.294641 84.322908C789.084187 69.504852 651.576853-0.637606 498.078947 0.005371 222.193664 1.16353 0 229.591281 0 512.001188c0.000998 282.768338 223.935894 511.996815 500.173616 511.996815 271.999462 0 493.287567-222.245582 500.016866-499.013461z" fill="#1afa29" /></svg>